<?xml version="1.0" encoding="UTF-8"?> <svg xmlns="http://www.w3.org/2000/svg" viewBox="0 0 229.71 61.18"><defs><style>.cls-1{fill:#424a5b;}</style></defs><g id="Layer_2" data-name="Layer 2"><g id="Layer_1-2" data-name="Layer 1"><g id="icon-ge-logo"><path class="cls-1" d="M30.6,61.18a30.59,30.59,0,1,1,30.58-30.6h0A30.58,30.58,0,0,1,30.61,61.18h0m0-59.73A29.15,29.15,0,1,0,59.74,30.61v0A29.16,29.16,0,0,0,30.6,1.45M56.51,39.31a.1.1,0,0,1-.15,0c-.09-.07-.1-.06-.09-.1a23.64,23.64,0,0,0,1-6.52c0-3.74-1.52-6-3.47-6a2,2,0,0,0-2,2v.12c0,2.29,2.79,2.46,2.79,7.46a19.5,19.5,0,0,1-1.1,6.1C50.36,53,40.36,57.87,30.62,57.87A24.16,24.16,0,0,1,22,56.52a.14.14,0,0,1,0-.17s.09-.1.13-.08a21.12,21.12,0,0,0,6.51,1c3.73,0,5.93-1.53,5.93-3.39a2.1,2.1,0,0,0-2.07-2.11h0c-2.29,0-2.46,2.87-7.38,2.87a20,20,0,0,1-6.18-1.1c-10.51-3.22-15.51-13.13-15.5-23a27.82,27.82,0,0,1,1.37-8.63.14.14,0,0,1,.15,0C5,22,5,22,5,22a22.51,22.51,0,0,0-1,6.52c0,3.73,1.52,5.93,3.48,5.93a2,2,0,0,0,2-2c0-2.29-2.8-2.54-2.8-7.46a20,20,0,0,1,1.1-6.18C11,8.32,20.9,3.4,30.64,3.32a25.67,25.67,0,0,1,8.6,1.4.14.14,0,0,1,0,.15c0,.09-.08.09-.11.09a19,19,0,0,0-6.52-1.08c-3.64,0-5.93,1.52-5.93,3.47a2,2,0,0,0,2,2h.12c2.29,0,2.46-2.79,7.37-2.79a20.19,20.19,0,0,1,6.2,1.16C53,10.94,57.78,20.93,57.88,30.59a26.38,26.38,0,0,1-1.37,8.72M42,32a4.85,4.85,0,0,0-5.08,4.61v.07c0,2.12,1.26,3.81,3,3.81a1.1,1.1,0,0,0,1.19-1v-.11c0-1.1-1.46-1.37-1.35-3a2.06,2.06,0,0,1,2.11-1.81c2,0,3,2,3,4a5.2,5.2,0,0,1-5.08,5.32h0c-3.56,0-5.84-3.39-5.84-7,0-5.42,3.56-7.54,5.42-8,0,0,4.87.87,4.72-1.27-.07-.94-1.47-1.3-2.48-1.34a6.69,6.69,0,0,0-2.26.36A2.74,2.74,0,0,1,38,25.13C41.5,22.5,44,20,44,17.08a2.78,2.78,0,0,0-2.67-2.89H41c-3.47,0-6.1,4.41-6.1,8.39A7.53,7.53,0,0,0,35,24.54a79.58,79.58,0,0,1-6.8,4.39,14.92,14.92,0,0,1,.32-2.57c1-1.1,2.42-2.76,2.42-4a1,1,0,0,0-.89-1.09H30c-1.69,0-3,2.54-3.3,4.32-.77.94-2.29,2.12-3.56,2.12a1.54,1.54,0,0,1-1.45-1.27c3.23-1.1,7.21-5.51,7.21-9.49a2.56,2.56,0,0,0-2.41-2.72,2.48,2.48,0,0,0-.47,0c-3.82,0-7,5.68-7,10.08-1.36,0-1.87-1.44-1.87-2.54a16.63,16.63,0,0,1,.43-2.54.69.69,0,0,0-.6-.76h-.08c-1.27,0-2,1.69-2,3.64a4.45,4.45,0,0,0,4.24,4.58,3.87,3.87,0,0,0,3.56,3.13,5.25,5.25,0,0,0,3.39-1.18c-.09.59-.17,1.1-.26,1.61-3.72,2-6.44,3.3-8.89,5.5a8.82,8.82,0,0,0-3,6,4.66,4.66,0,0,0,4.4,4.91,4.34,4.34,0,0,0,.51,0c3.9,0,6.87-3.13,8.3-7.45a33.54,33.54,0,0,0,1.12-7.71A74.92,74.92,0,0,0,36,26.58a3.15,3.15,0,0,0,.85,1,10.57,10.57,0,0,0-6,9.74c0,4.41,3,9.32,8.81,9.32a8.07,8.07,0,0,0,8-7.92c0-3.47-2-6.69-5.68-6.69M18.65,43.9a1.93,1.93,0,0,1-2.11-1.73,2.41,2.41,0,0,1,0-.38c0-3.65,5.05-7.12,8.86-9-.68,5.09-2.4,10.9-6.75,11.1m2.8-20c0-2.8,2.76-8.11,4.45-7.55,2,.67-1.66,6-4.45,7.55m16-1.27c0-3.48,2.35-6.85,3.63-6.21,1.47.73-1.09,4-3.63,6.21"></path><path class="cls-1" d="M76.81,30.63h0a5.8,5.8,0,0,1,5.8-5.82h.2a6.59,6.59,0,0,1,4.55,1.63l-1.83,2.19a4,4,0,0,0-2.7-1,2.94,2.94,0,0,0-2.87,3v.06h0a3,3,0,0,0,2.89,3.11H83a3.18,3.18,0,0,0,1.8-.47V31.92H82.55V29.65H87.7v5a7.57,7.57,0,0,1-4.86,1.73,5.76,5.76,0,0,1-6-5.48A2.44,2.44,0,0,1,76.81,30.63Z"></path><path class="cls-1" d="M91.13,25h9v2.64h-6v1.7h5.38v2.45H94.13v1.78h6V36.2h-9Z"></path><path class="cls-1" d="M113.27,24.91h3L121,36.2h-3.33l-.82-2h-4.32l-.8,2H108.5ZM116,31.78l-1.24-3.19-1.27,3.19Z"></path><path class="cls-1" d="M123.72,25h4.8c2.83,0,4.66,1.46,4.66,3.94h0c0,2.64-2,4-4.82,4h-1.54v3.21h-3.1Zm4.58,5.57c1.1,0,1.77-.57,1.77-1.45h0c0-1-.67-1.47-1.79-1.47h-1.46v3Z"></path><path class="cls-1" d="M136.13,25h4.8c2.83,0,4.66,1.46,4.66,3.94h0c0,2.64-2,4-4.82,4h-1.54v3.21h-3.1Zm4.58,5.57c1.1,0,1.77-.57,1.77-1.45h0c0-1-.67-1.47-1.79-1.47h-1.46v3Z"></path><path class="cls-1" d="M148.45,25h3.11v8.49H157V36.2h-8.54Z"></path><path class="cls-1" d="M160,25h3.15V36.2H160Z"></path><path class="cls-1" d="M170.62,24.91h3l4.77,11.29h-3.33l-.82-2h-4.32l-.8,2h-3.27Zm2.72,6.87-1.21-3.19-1.27,3.19Z"></path><path class="cls-1" d="M181.06,25H184l4.61,5.92V25h3.07V36.2h-2.72l-4.79-6.15V36.2h-3.08Z"></path><path class="cls-1" d="M194.84,30.63h0a5.74,5.74,0,0,1,5.68-5.82h.23a5.48,5.48,0,0,1,4.75,2.33l-2.37,1.77a3,3,0,0,0-2.45-1.31A2.77,2.77,0,0,0,198,30.46c0,.05,0,.09,0,.14h0a2.77,2.77,0,0,0,2.53,3h.14a3.09,3.09,0,0,0,2.53-1.36l2.34,1.66a5.9,5.9,0,0,1-10.74-3.26Z"></path><path class="cls-1" d="M208.5,25h9v2.64h-5.93v1.7h5.37v2.45h-5.37v1.78h6V36.2h-9.09Z"></path><path class="cls-1" d="M219.93,34.53l1.73-2.06a5.74,5.74,0,0,0,3.63,1.34c.83,0,1.28-.29,1.28-.77h0c0-.46-.37-.72-1.89-1.07-2.39-.54-4.23-1.22-4.23-3.52h0c0-2.09,1.65-3.59,4.34-3.59a7,7,0,0,1,4.61,1.49l-1.55,2.19a5.58,5.58,0,0,0-3.14-1.1c-.75,0-1.12.32-1.12.72h0c0,.51.39.74,1.94,1.09,2.57.56,4.18,1.39,4.18,3.49h0c0,2.29-1.81,3.65-4.53,3.65A7.81,7.81,0,0,1,219.93,34.53Z"></path></g></g></g></svg> 