<?xml version="1.0" encoding="UTF-8"?> <svg xmlns="http://www.w3.org/2000/svg" viewBox="0 0 143 35" fill="#41495a"><path d="M0.000104241 25.0381L11.2726 14.2886V28.3525C11.2726 28.6507 11.8699 28.8924 12.6064 28.8924C13.3431 28.8924 13.9449 28.6508 13.9449 28.3525V0L25.2325 10.7542V33.0781C25.2325 33.7001 24.7329 34.2047 24.1133 34.2143L24.1121 34.2151H1.13696C0.508977 34.2151 0 33.706 0 33.0782V25.0381H0.000104241Z" fill="#41495a"></path><path d="M63.1452 14.4971H53.0557C53.0113 14.4971 52.9753 14.533 52.9753 14.5775V28.6484C52.9753 28.6927 53.0113 28.7287 53.0557 28.7287H62.0653C62.0951 28.7287 62.1226 28.712 62.1366 28.6854L63.2163 26.579C63.244 26.5254 63.2053 26.4619 63.1452 26.4619H55.611V22.6912H59.0327C59.0635 22.6912 59.0915 22.6734 59.1049 22.6457L60.1949 20.5191C60.2206 20.4659 60.1816 20.4041 60.1226 20.4041H55.611V16.7637H62.0507C62.0807 16.7637 62.1082 16.7471 62.122 16.7205L63.2162 14.6141C63.2439 14.5607 63.2052 14.4971 63.1452 14.4971Z" fill="#41495a"></path><path d="M95.2475 23.0446H95.2461L86.1588 14.271C86.0592 14.1649 85.8811 14.2353 85.8811 14.3808V28.6487C85.8811 28.6929 85.9171 28.7289 85.9614 28.7289H88.4161C88.4605 28.7289 88.4964 28.6929 88.4964 28.6487L88.4977 20.1917L97.5851 28.9792C97.6847 29.0854 97.8627 29.0149 97.8627 28.8694V16.672C97.8627 16.6496 97.8534 16.6283 97.837 16.6131L95.3824 14.2417C95.331 14.1942 95.2476 14.2305 95.2476 14.3004V23.0446H95.2475Z" fill="#41495a"></path><path d="M104.865 28.6818C104.852 28.7103 104.823 28.7287 104.792 28.7287H101.761C101.703 28.7287 101.664 28.6681 101.688 28.6149L109.128 14.3134C109.185 14.1892 109.362 14.1887 109.42 14.3127L116.862 28.6145C116.887 28.6678 116.848 28.7287 116.789 28.7287H113.835C113.803 28.7287 113.775 28.7102 113.762 28.6816C113.762 28.6816 109.317 19.8131 109.306 19.8131L104.865 28.6818Z" fill="#41495a"></path><path d="M140.158 28.601L135.029 23.7925C136.604 22.9217 137.658 21.2313 137.601 19.3069C137.52 16.6091 135.217 14.4971 132.497 14.4971H126.904C126.84 14.4971 126.801 14.5688 126.837 14.6222L129.458 17.1044C129.473 17.1269 129.498 17.1404 129.525 17.1404H132.536C133.782 17.1404 134.856 18.1065 134.917 19.3411C134.982 20.6425 133.949 21.724 132.658 21.7539H129.318C129.252 21.7539 129.214 21.828 129.252 21.8815L136.39 28.6966C136.405 28.7169 136.429 28.7289 136.455 28.7289H140.092C140.158 28.7286 140.196 28.6543 140.158 28.601Z" fill="#41495a"></path><path d="M123.424 14.3V28.6482C123.424 28.6927 123.388 28.7285 123.343 28.7285H120.794C120.75 28.7285 120.714 28.6927 120.714 28.6482V16.7311C120.714 16.7087 120.724 16.6872 120.74 16.6721L123.289 14.2408C123.341 14.1939 123.424 14.2304 123.424 14.3Z" fill="#41495a"></path><path d="M77.6259 23.0444L68.5373 14.2708C68.4377 14.1646 68.2595 14.235 68.2595 14.3806V28.6485C68.2595 28.6928 68.2955 28.7288 68.3397 28.7288H70.7945C70.8389 28.7288 70.8747 28.6928 70.8747 28.6485L70.8762 20.1914L79.9635 28.9791C80.0631 29.0852 80.2411 29.0147 80.2411 28.8692V16.6717C80.2411 16.6494 80.2318 16.6282 80.2155 16.6129L77.7608 14.2414C77.7094 14.1939 77.626 14.2302 77.626 14.3001V23.0444H77.6259Z" fill="#41495a"></path><path d="M36.2917 25.1917C36.2917 27.1311 37.8972 28.6969 39.8356 28.7129L39.8354 28.7172H39.865H43.7663H43.796L43.7957 28.7129C45.7341 28.697 47.3397 27.1311 47.3397 25.1917V14.2978C47.3397 14.2281 47.2309 14.1944 47.1795 14.2417L44.6666 16.6249C44.6499 16.64 44.6298 16.6613 44.6298 16.6837V24.6317C44.6298 25.6064 43.8606 26.4226 42.8848 26.4226H40.7467C39.7709 26.4226 39.0017 25.6592 39.0017 24.6317V22.7588C39.0017 22.6891 38.8909 22.6513 38.8394 22.6985L36.3326 25.0737C36.3159 25.0888 36.2919 25.1094 36.2919 25.1319V25.1917H36.2917Z" fill="#41495a"></path><path d="M143 15.873C143 16.6538 142.388 17.266 141.591 17.266C140.802 17.266 140.173 16.6538 140.173 15.873C140.173 15.1099 140.802 14.4971 141.591 14.4971C142.388 14.497 143 15.1098 143 15.873ZM140.525 15.873C140.525 16.4859 140.979 16.9722 141.599 16.9722C142.203 16.9722 142.648 16.4859 142.648 15.8817C142.648 15.2689 142.203 14.7744 141.591 14.7744C140.979 14.7743 140.525 15.2689 140.525 15.873ZM141.373 16.595H141.054V15.2192C141.179 15.194 141.356 15.1767 141.582 15.1767C141.843 15.1767 141.959 15.2192 142.061 15.278C142.136 15.3362 142.194 15.4452 142.194 15.58C142.194 15.731 142.077 15.8484 141.91 15.8985V15.9154C142.043 15.9659 142.119 16.0663 142.161 16.2508C142.203 16.4608 142.228 16.5447 142.262 16.5952H141.918C141.876 16.5448 141.851 16.4191 141.809 16.2592C141.784 16.1081 141.7 16.0411 141.524 16.0411H141.373V16.595ZM141.381 15.8149H141.532C141.708 15.8149 141.851 15.7562 141.851 15.6133C141.851 15.4876 141.759 15.4034 141.557 15.4034C141.473 15.4034 141.414 15.4117 141.381 15.4199V15.8149H141.381Z" fill="#41495a"></path></svg> 