<?xml version="1.0" encoding="UTF-8"?> <svg xmlns="http://www.w3.org/2000/svg" viewBox="0 0 400.8 83.7"><defs><style>.cls-1{fill:#41495a}</style></defs><g id="Layer_2" data-name="Layer 2"><g id="Layer_1-2" data-name="Layer 1"><path class="cls-1" d="M.5,81.9V.5H11.6V81.9Zm67.2,0H51.9L13.4,37.8,51.9.5H67.4l-39.2,38Z"></path><path class="cls-1" d="M.5,81.7V.5H11.6V81.7Zm67,0H51.8l-38.4-44L51.8.5H67.3L28.2,38.4Z"></path><path class="cls-1" d="M88.5,73.1a23.83,23.83,0,0,0,4.6-.4,19,19,0,0,0,4-1.4,17.37,17.37,0,0,0,3.6-2.4,29.77,29.77,0,0,0,3.5-3.6l7,7.6a26.16,26.16,0,0,1-10.3,7.7,32.6,32.6,0,0,1-13.1,2.6,29.34,29.34,0,0,1-10.9-2.1,27.35,27.35,0,0,1-8.7-5.9,29.1,29.1,0,0,1-5.8-8.9,28.1,28.1,0,0,1-2.1-11.1,31.9,31.9,0,0,1,1.8-10.6,26.27,26.27,0,0,1,5.2-8.8,24,24,0,0,1,8.4-6,28.38,28.38,0,0,1,11.5-2.2,28.06,28.06,0,0,1,10.3,1.9,25,25,0,0,1,8.3,5.3,23.81,23.81,0,0,1,5.4,8.3,28.37,28.37,0,0,1,2,10.8,24.37,24.37,0,0,1-.1,2.7c-.1.9-.2,1.9-.3,2.8H71.1a18.32,18.32,0,0,0,1.5,4.5,13.94,13.94,0,0,0,3.1,4.5,15.72,15.72,0,0,0,5.1,3.4,19.81,19.81,0,0,0,7.7,1.3M87.3,36.3A16.73,16.73,0,0,0,81,37.4a12.69,12.69,0,0,0-4.7,3.2,18.62,18.62,0,0,0-3.2,4.7,27.94,27.94,0,0,0-1.8,5.8h30.9a18.62,18.62,0,0,0-1.5-5.6,16,16,0,0,0-3.1-4.7,14.24,14.24,0,0,0-4.5-3.2A11.74,11.74,0,0,0,87.3,36.3Z"></path><path class="cls-1" d="M127.6,35.9a18.66,18.66,0,0,1,4.6-4.7,21.55,21.55,0,0,1,4.8-2.4,16.35,16.35,0,0,1,4.5-.9c1.4-.1,2.6-.2,3.5-.2a17.86,17.86,0,0,1,12.2,4.8,15.55,15.55,0,0,1,3.7,5.1,14.44,14.44,0,0,1,1.4,6.2v38H151.1V47a10.88,10.88,0,0,0-.7-4,9.13,9.13,0,0,0-5-5.2,10.88,10.88,0,0,0-4-.7,12.42,12.42,0,0,0-5.3,1.2,13,13,0,0,0-4.3,3.4,14.81,14.81,0,0,0-2.9,5.2,19.42,19.42,0,0,0-1.1,6.3V81.6h-11V29.1h10.8v6.8"></path><path class="cls-1" d="M230.9,27.6a17,17,0,0,1,6.7,1.3,17.36,17.36,0,0,1,9.1,8.6,14.24,14.24,0,0,1,1.3,6.1V81.7H236.9V47a10.88,10.88,0,0,0-.7-4,9.62,9.62,0,0,0-2-3.2,9.45,9.45,0,0,0-3.1-2.1,10.88,10.88,0,0,0-4-.7,13.3,13.3,0,0,0-4.8,1,11.66,11.66,0,0,0-4.2,2.7,13.14,13.14,0,0,0-3,4,10,10,0,0,0-1.1,5.1v32H202.9V47a10.88,10.88,0,0,0-.7-4,9.62,9.62,0,0,0-2-3.2,9.45,9.45,0,0,0-3.1-2.1,10.36,10.36,0,0,0-3.9-.7,11.33,11.33,0,0,0-5.4,1.3,13.27,13.27,0,0,0-4.3,3.5,15.3,15.3,0,0,0-2.9,5.1,18.83,18.83,0,0,0-1.1,6.2V81.7h-11V29.1h10.8v6.8a18.66,18.66,0,0,1,4.6-4.7,21.55,21.55,0,0,1,4.8-2.4,18,18,0,0,1,4.5-.9c1.4-.1,2.6-.2,3.5-.2a19.13,19.13,0,0,1,4.8.6,17.21,17.21,0,0,1,8,4.7,18.31,18.31,0,0,1,2.6,3.6,18.66,18.66,0,0,1,5-5.1,25.67,25.67,0,0,1,5.2-2.7,20.53,20.53,0,0,1,4.8-1c1.6-.1,2.8-.1,3.8-.2"></path><path class="cls-1" d="M278.7,27.6a31.38,31.38,0,0,1,10.9,2,29,29,0,0,1,9,5.6,26.37,26.37,0,0,1,6.1,8.7A26.75,26.75,0,0,1,307,55.1a27.91,27.91,0,0,1-2.2,11.4,26.49,26.49,0,0,1-6,8.8A25.68,25.68,0,0,1,290,81a28.82,28.82,0,0,1-10.5,2,32.64,32.64,0,0,1-11.6-2.1,27.19,27.19,0,0,1-9.1-5.8,26.49,26.49,0,0,1-6-8.8A27.35,27.35,0,0,1,250.7,55,26.17,26.17,0,0,1,253,44a27.8,27.8,0,0,1,6.2-8.6,29.55,29.55,0,0,1,9-5.8,33.72,33.72,0,0,1,10.5-2m.6,10.3a18,18,0,0,0-6.9,1.3,17.19,17.19,0,0,0-5.5,3.7,17.63,17.63,0,0,0-3.7,5.6,16.93,16.93,0,0,0-1.3,7.1,18.51,18.51,0,0,0,1.3,7,16.32,16.32,0,0,0,9.3,9.1,18,18,0,0,0,6.9,1.3,16.73,16.73,0,0,0,11.9-5,16.24,16.24,0,0,0,3.6-5.7,18.17,18.17,0,0,0,1.3-7.3,17,17,0,0,0-1.3-6.7,16.52,16.52,0,0,0-15.6-10.4Z"></path><path class="cls-1" d="M339.4,38a8,8,0,0,0-2.1-.5,17.7,17.7,0,0,0-2.3-.1,12.09,12.09,0,0,0-5.3,1.2,13,13,0,0,0-4.3,3.5,14.58,14.58,0,0,0-2.8,5.2,21.77,21.77,0,0,0-1,6.7V81.8H310.5V29.1h10.8v6.6a16.43,16.43,0,0,1,4.5-4.6,20.29,20.29,0,0,1,4.9-2.4,18,18,0,0,1,4.5-.9c1.4-.1,2.6-.2,3.5-.2a14.72,14.72,0,0,1,3.6.4l-2.9,10"></path><path class="cls-1" d="M365.1,73.1a23.83,23.83,0,0,0,4.6-.4,19,19,0,0,0,4-1.4,17.37,17.37,0,0,0,3.6-2.4,29.77,29.77,0,0,0,3.5-3.6l7,7.6a26.16,26.16,0,0,1-10.3,7.7,32.6,32.6,0,0,1-13.1,2.6,29.34,29.34,0,0,1-10.9-2.1,27.35,27.35,0,0,1-8.7-5.9,29.1,29.1,0,0,1-5.8-8.9,30,30,0,0,1-2.1-11.1,31.9,31.9,0,0,1,1.8-10.6,26.27,26.27,0,0,1,5.2-8.8,24,24,0,0,1,8.4-6,30.31,30.31,0,0,1,21.9-.3,25,25,0,0,1,8.3,5.3,25.59,25.59,0,0,1,5.5,8.3,28.37,28.37,0,0,1,2,10.8,24.37,24.37,0,0,1-.1,2.7c-.1.9-.2,1.9-.3,2.8h-42a18.32,18.32,0,0,0,1.5,4.5,13.94,13.94,0,0,0,3.1,4.5,15.72,15.72,0,0,0,5.1,3.4,21.31,21.31,0,0,0,7.8,1.3m-1.2-36.8a16.73,16.73,0,0,0-6.3,1.1,13.56,13.56,0,0,0-4.7,3.2,18.62,18.62,0,0,0-3.2,4.7,27.94,27.94,0,0,0-1.8,5.8h30.9a21.9,21.9,0,0,0-1.4-5.6,16,16,0,0,0-3.1-4.7,13.18,13.18,0,0,0-4.6-3.2A11.74,11.74,0,0,0,363.9,36.3Z"></path><path class="cls-1" d="M400.3,77.7a4,4,0,1,1-4-4A4,4,0,0,1,400.3,77.7Zm-7.4,0a3.4,3.4,0,1,0,3.4-3.4h0a3.37,3.37,0,0,0-3.4,3.4Zm1.6-2.1H396a4.87,4.87,0,0,1,1.2.1,1.45,1.45,0,0,1,.7,1,1.16,1.16,0,0,1-1.2,1.2h0c.3.1.6.4,1,1.1l.5.8h-.9l-.4-.7c-.5-1-.8-1.2-1.3-1.2h-.4v1.9h-.7Zm1.6,1.9c.7,0,1-.2,1-.7s-.3-.6-1.1-.6h-.8v1.3Z"></path></g></g></svg> 