<?xml version="1.0" encoding="UTF-8"?> <svg xmlns="http://www.w3.org/2000/svg" viewBox="0 0 113 12" fill="none"><g clip-path="url(#clip0_384_131425)"><path d="M27.9854 10.0415C27.6219 10.0415 27.2733 9.88861 27.0161 9.61646C26.759 9.34431 26.6144 8.97516 26.6142 8.59016V6.46542H28.8455V4.4708H26.6142V1.73438H22.1874V4.47365H20.8503V6.46827H22.1874V9.32437V9.41935C22.1874 10.8441 23.678 11.9962 25.5174 11.9962C27.1056 11.9962 28.241 11.5498 28.8455 11.2364V9.71664C28.6027 9.92669 28.2989 10.0414 27.9854 10.0415Z" fill="#41495a"></path><path d="M19.4234 4.47363H15.0496V11.5688H19.4234V4.47363Z" fill="#41495a"></path><path d="M17.2361 3.43551C18.4414 3.43551 19.4181 2.67565 19.4181 1.73058C19.4181 0.785516 18.4414 0.0266113 17.2361 0.0266113C16.0308 0.0266113 15.055 0.786466 15.055 1.73058C15.055 2.6747 16.0317 3.43551 17.2361 3.43551Z" fill="#41495a"></path><path d="M57.4866 8.61677H63.6433C63.6433 8.61677 63.8101 6.90709 63.0155 5.82525C62.1608 4.66267 60.4317 3.98926 58.5224 3.98926C56.6131 3.98926 53.0625 4.48601 53.0625 8.04213C53.0625 11.5982 56.3727 12.0038 58.5125 12.0038C62.5913 12.0038 63.5222 10.998 63.5222 10.998V9.54759C62.2287 9.99979 60.8755 10.231 59.5134 10.2324C57.2624 10.2324 57.4866 8.87987 57.4866 8.61677ZM57.4866 6.95174V6.71238C57.4866 6.4101 57.6 6.12019 57.8018 5.90644C58.0036 5.69269 58.2773 5.5726 58.5628 5.5726C58.8482 5.5726 59.1219 5.69269 59.3237 5.90644C59.5256 6.12019 59.639 6.4101 59.639 6.71238C59.639 6.71238 59.639 6.95744 59.639 6.95933V6.98214H57.4866V6.95174Z" fill="#41495a"></path><path d="M47.9425 4.25234C46.9345 4.25234 45.9991 4.74625 45.4206 5.18697V0.68103H41.045V11.5688H45.4126V8.12191C45.4126 7.81962 45.5259 7.52971 45.7278 7.31596C45.9296 7.10221 46.2033 6.98213 46.4887 6.98213C46.7742 6.98213 47.0479 7.10221 47.2497 7.31596C47.4515 7.52971 47.5649 7.81962 47.5649 8.12191C47.5649 8.12191 47.5649 8.1219 47.5649 8.12855V11.5688H51.5675V7.44658C51.5675 6.69623 50.7379 4.25234 47.9425 4.25234Z" fill="#41495a"></path><path d="M72.1944 4.25232C71.1873 4.25232 70.251 4.74623 69.6726 5.18694V4.47363H65.297V11.5688H69.6654V8.12188C69.6654 7.81959 69.7788 7.52968 69.9806 7.31593C70.1824 7.10218 70.4562 6.9821 70.7416 6.9821C71.027 6.9821 71.3007 7.10218 71.5026 7.31593C71.7044 7.52968 71.8178 7.81959 71.8178 8.12188C71.8178 8.12188 71.8178 8.12188 71.8178 8.12853V11.5688H75.8257V7.44656C75.8239 6.6962 74.9908 4.25232 72.1944 4.25232Z" fill="#41495a"></path><path d="M96.2007 4.47363H91.8268V11.5688H96.2007V4.47363Z" fill="#41495a"></path><path d="M94.0133 3.43551C95.2196 3.43551 96.1962 2.67565 96.1962 1.73058C96.1962 0.785516 95.2196 0.0266113 94.0133 0.0266113C92.8071 0.0266113 91.8322 0.786466 91.8322 1.73058C91.8322 2.6747 92.8089 3.43551 94.0133 3.43551Z" fill="#41495a"></path><path d="M85.3563 11.5688H90.592L85.8881 0H80.6524L81.2067 1.36204L77.0571 11.5688H79.6749L80.5036 9.52762H84.5276L85.3563 11.5688ZM81.5394 6.98211L82.516 4.58097L83.4945 6.98211H81.5394Z" fill="#41495a"></path><path d="M11.5439 5.99983C11.3952 5.61745 11.1613 5.27885 10.8622 5.01291C10.5632 4.74697 10.2078 4.56156 9.82652 4.47252L12.778 -0.0020752H8.85346L6.20155 4.0204C6.10148 4.16079 5.97209 4.27475 5.8235 4.35335C5.67491 4.43195 5.51117 4.47306 5.34508 4.47347C5.23118 4.47347 5.14509 4.48107 5.10832 4.47347V-0.000173704H0V11.5686H5.1119V7.53093C5.32754 7.42061 5.56388 7.36315 5.80336 7.36281C6.12202 7.36452 6.43318 7.46536 6.69818 7.6528C6.96317 7.84024 7.17032 8.10602 7.29388 8.41711L8.57993 11.5686H13.8111L11.5439 5.99983Z" fill="#41495a"></path><path d="M36.9421 9.47916C35.4946 9.47916 34.3207 9.00425 34.3207 7.99269C34.3207 6.98114 35.4946 6.50718 36.9421 6.50718C37.8039 6.50718 38.5662 6.6772 39.0442 7.02673V4.97702C38.0802 4.31215 36.7466 3.98541 35.2722 3.98541C32.3342 3.98541 29.954 5.27527 29.954 7.9946C29.954 10.7139 32.336 12.0019 35.274 12.0019C36.7484 12.0019 38.0819 11.677 39.046 11.0103V8.95866C38.5635 9.3082 37.8039 9.47916 36.9421 9.47916Z" fill="#41495a"></path><path d="M104.451 0.665771V4.66071C103.763 4.27128 102.999 3.97114 102.005 3.97114C99.4767 3.97114 97.6356 5.19545 97.6356 7.77706C97.6356 10.3587 99.4767 11.5839 102.005 11.5839C102.999 11.5839 103.763 11.2828 104.451 10.8934V11.5526H108.824V0.665771H104.451ZM103.259 9.13909C102.488 9.13909 102.003 8.52931 102.003 7.77706C102.003 7.0248 102.486 6.41502 103.259 6.41502C103.707 6.41979 104.136 6.61158 104.451 6.94881V8.60625C104.136 8.94365 103.707 9.13519 103.259 9.13909Z" fill="#41495a"></path><path d="M112.18 1.21104C112.18 0.849162 111.934 0.646851 111.531 0.646851H110.929V2.50754H111.319V1.79803H111.449L111.914 2.52939L112.318 2.4572L111.846 1.72584C111.947 1.69091 112.035 1.62155 112.095 1.52849C112.156 1.43543 112.186 1.32386 112.18 1.21104ZM111.497 1.50928H111.318V0.980238H111.497C111.682 0.980238 111.785 1.07522 111.785 1.24049C111.791 1.4219 111.682 1.50928 111.497 1.50928Z" fill="#41495a"></path><path d="M111.523 0.0303955C110.663 0.0303955 110.044 0.684817 110.044 1.63654C110.044 2.58825 110.649 3.23603 111.523 3.23603C112.381 3.23603 113 2.58825 113 1.63654C113 0.684817 112.394 0.0303955 111.523 0.0303955ZM111.523 2.96343C110.862 2.96343 110.336 2.48852 110.336 1.63369C110.336 0.778852 110.862 0.303944 111.523 0.303944C112.184 0.303944 112.715 0.778852 112.715 1.63369C112.715 2.48852 112.193 2.96058 111.523 2.96058V2.96343Z" fill="#41495a"></path></g><defs><clipPath id="clip0_384_131425"><rect width="113" height="12" fill="white"></rect></clipPath></defs></svg> 