<?xml version="1.0" encoding="UTF-8"?> <svg xmlns="http://www.w3.org/2000/svg" viewBox="0 0 176.13 77.24"><defs><style>.cls-1{fill:#41495a;}.cls-2{fill:#fff;}</style></defs><g id="Layer_2" data-name="Layer 2"><g id="Layer_1-2" data-name="Layer 1"><path class="cls-1" d="M38.65,77.24A38.62,38.62,0,1,0,0,38.63,38.63,38.63,0,0,0,38.65,77.24"></path><polygon class="cls-2" points="37.09 21.68 37.09 55.56 47.87 55.56 47.87 52.52 40.2 52.52 40.2 21.68 37.09 21.68"></polygon><path class="cls-2" d="M26.31,30.92a4.64,4.64,0,1,0-4.63-4.63,4.63,4.63,0,0,0,4.63,4.63"></path><path class="cls-2" d="M40.2,6.3l-1.54,0A32.34,32.34,0,1,0,71,38.61V37.17H47.9v3h20c0,.07,0,.38,0,.46a29.32,29.32,0,0,1-50,18.73A29.32,29.32,0,0,1,38.66,9.29c.34,0,1.16,0,1.54,0Z"></path><path class="cls-1" d="M106.37,13H94.75V63.28h35.68V53.49H106.37ZM156,44.12h9.46v8.79a26.54,26.54,0,0,1-8.38,1.33c-10.45,0-13.93-5.31-13.93-16.09,0-10.29,3.31-16.35,13.77-16.35,5.81,0,9.12,1.82,11.86,5.31L176,20.47c-4.4-6.3-12.12-8.21-19.33-8.21-16.27,0-24.81,8.88-24.81,25.8s7.72,26,24.73,26c7.79,0,15.43-2,19.57-4.9V34.74H156Z"></path></g></g></svg> 