<?xml version="1.0" encoding="UTF-8"?> <svg xmlns="http://www.w3.org/2000/svg" viewBox="0 0 708.93 193.92"><defs><style>.cls-1{fill:#fff;}</style></defs><g id="Layer_2" data-name="Layer 2"><g id="Layer_1-2" data-name="Layer 1"><path fill="#41495a" d="M157.52,67.37a1.71,1.71,0,0,0-2-.27c-3.62,1.41-4.69.62-5.48-.31-1-1.1-2.43-1-3.82.17-13.32,11.88-32.54,15.53-42.81,16.64-4,.46-7.11.51-8.86.09a5.49,5.49,0,0,1-3.63,1.48A1.93,1.93,0,0,1,90.2,85a20.64,20.64,0,0,0,5.58-9,27.16,27.16,0,0,0,3.59-5c.17-.31.68-1.28.14-2s-1.58-.39-1.89-.31c-.6,0-1.06-1.45-1.06-2.3A21.11,21.11,0,0,0,86.47,51.5a7.29,7.29,0,0,1,4.23-3.42c6.06-2.43,11.6-9.2,15.79-19.5,3.86-9.49,1-20-2.15-24.18S94.43-1.16,88.25,1c-3.91,1.37-11.18,7.84-17,13-3.15,2.8-5.87,5.23-7.39,6.25-2.12,1.44-5,2.47-8.68,3.78a113.44,113.44,0,0,0-13.28,5.46c-4.57,2.29-7.46,5.4-8.6,9.25s-.38,8.39,2.16,12.72c4.51,7.7,15.84,5.29,17.51,4.36a3.72,3.72,0,0,1,3.74.7A2.37,2.37,0,0,1,57,59.45a20.72,20.72,0,0,0-2.63,10.11,21.17,21.17,0,0,0,1,6.62,1.36,1.36,0,0,1,0,1.1.67.67,0,0,1-.6.14,1.69,1.69,0,0,0-1.83,1,1.51,1.51,0,0,0,.61,1.85,15,15,0,0,0,5,2.08,21.28,21.28,0,0,0,10.87,7.58l2.74,8.42,7.21-3.52a8.25,8.25,0,0,1,5.41-.5L93,95.68c1.79-2.64,3.22-3.41,4-3.42a1.64,1.64,0,0,1,1.32.65c7,9.49,8.09,16.73,7.58,25.34-.54,9.11-10.94,13.18-16.13,13.25-8.64.2-15.12-2.57-19.26-8.24-7-9.57-5.36-24.81-3.44-30.42C28.21,84.48,17.37,66.3,14,60.45l-.42-.71a2.85,2.85,0,0,0-1.95-1.51c-1.05-.2-2.28.23-3.73,1.3L3.28,56.39c-1-1-1.93-1.33-2.66-.93S0,59.21,0,59.21v0s2,5.9,2.06,6.18A5.33,5.33,0,0,0,5,69.09c6.05,3.61,10.22,7.14,12.33,10.47l37.89,37.76c2.38,2.08,2.23,5.4,1.69,7.83-5.69,16-27.06,36.31-27.06,36.31H52.27c5.32,0,5.43,1.92,5.57,4.35s-.45,12.56-1.55,16.46-2.09,4.84-4.6,5.81c-1.95.76-2.22,1.69-2.1,2.34a2,2,0,0,0,2,1.43s2.4.35,4.93-2.73c1.22-1.49,17.26-20.73,18.58-22.05.7-.76,1.7-1.59,2.6-1.34s1.74,1.76,2,3c.43,2.15.74,22.7.74,22.7l.83-.07a9.69,9.69,0,0,1,6,1.73c.35.21.69.4,1,.56a1.55,1.55,0,0,0,2-.25c.25-.39.26-1-.47-1.61-2.14-1.76-3.29-3.35-3.42-4.71A4.27,4.27,0,0,1,87.79,184c6.84-8.2,26.81-34.24,30.68-45.58,4.49-13.15,3.4-30.1-.18-38.58,3.14-4.48,25.12-19.08,29.58-20.15,6.22-1.5,7.37-4.31,9.4-9.23C158.22,68.74,157.85,67.74,157.52,67.37Z"></path><path fill="#41495a" d="M156.24,68.4c.22-.09-.05,0,0,0Z"></path><path fill="#41495a" d="M98.15,70.14c0,.07,0-.09,0,0Z"></path><path fill="#41495a" d="M156.24,68.4c-3.5,1.37-5.76,1.2-7.33-.66-.5-.56-1.23-.13-1.75.32-13.62,12.14-33.18,15.86-43.62,17a30,30,0,0,1-8.62.1,6,6,0,0,1-4.16,1.47,3.71,3.71,0,0,1-2.32-1.71,21.15,21.15,0,0,0,6-9.47s3.15-4.25,3.7-5.3A1.51,1.51,0,0,1,96.66,70c-1-.63-1.52-2.37-1.55-3.41a19.56,19.56,0,0,0-10-14.17l-.61-.34.32-.63a8.72,8.72,0,0,1,5.31-4.71c5.69-2.28,10.94-8.77,15-18.7,3.65-9,1-18.87-1.95-22.74C100.41,1.64,94.33.42,88.73,2.38,85.09,3.66,77.94,10,72.19,15.14c-3.19,2.84-6,5.29-7.54,6.37-2.27,1.54-5.25,2.6-9,3.94a112.55,112.55,0,0,0-13.12,5.4c-4.19,2.09-6.83,4.91-7.85,8.36s-.32,7.59,2,11.56c4.12,7,14.74,4.28,15.55,3.83,1.73-1,4.07-.27,5.4.87s1.49,2.76.64,4.68a19.29,19.29,0,0,0-2.45,9.41,19.7,19.7,0,0,0,1,6.16,2.7,2.7,0,0,1-.28,2.47,2,2,0,0,1-1.94.67.29.29,0,0,0-.26.08,19.7,19.7,0,0,0,4.83,2l.47.29A19.81,19.81,0,0,0,70.27,88.6l2.83,7.65c1.7-.82,5.7-2.78,5.69-2.78a9.59,9.59,0,0,1,6.38-.61l7,1.4C93.8,92,95.4,90.83,96.94,90.8A3.1,3.1,0,0,1,99.47,92c7.26,9.84,8.39,17.36,7.85,26.3-.54,9.27-10.73,14.53-17.55,14.62-9.14.21-16-2.77-20.47-8.84-6.46-8.85-6.13-22.77-3.8-30.4C26.7,85.15,16.17,67.13,12.69,61.19l-.42-.71a1.46,1.46,0,0,0-1-.82c-.48-.09-3.4,1.68-3.4,1.68s-6.46-4.55-6.58-4.58a3.91,3.91,0,0,0,.09,2.07c.14.42,2,5.84,2.05,6.15a3.93,3.93,0,0,0,2.23,2.83C12,71.54,16.26,75.2,18.51,78.7l37.71,37.55c2.88,2.53,2.74,6.4,2.11,9.24-3.23,12-18.52,28.71-24.65,34.51H52.27c6.19,0,6.84,2.6,7,5.73.17,2.89-.49,13-1.6,16.93s-2.36,5.57-5.48,6.78c-.89.35-1.13.63-1.18.72a3.38,3.38,0,0,0,.78.24c.84,0,1.4,0,3.72-2.31,1.31-1.31,5.34-6.22,9.24-11,4.1-5,8-9.71,9.31-11.05,1.39-1.52,2.75-2.11,4-1.75,1.72.48,2.71,2.53,3,4.14.47,2.31.9,16.76.83,21.44a10.63,10.63,0,0,1,5.33,1.54A7.19,7.19,0,0,1,85,187.23a5.55,5.55,0,0,1,1.65-4.13c6.79-8.15,26.61-34,30.42-45.12,4.44-13,3.26-30.13-.33-38.22,2.53-4.43,25.91-20.29,30.76-21.46,5.5-1.33,6.46-3.65,8.42-8.4A1.89,1.89,0,0,0,156.24,68.4Z"></path><path class="cls-1" d="M17.79,70l-3.62,2.68s-5-3.62-6.77-4.56A6.51,6.51,0,0,1,4.33,65l-.71-2.68c0-2.68,3.93.47,5.82,2.36,1.27,1.27,2.36,2,2.05.63-1-3.31.63-4.57,1.89-1.89.47,1,.94,1.73,1.42,2.84A17.59,17.59,0,0,0,17.79,70Z"></path><polygon class="cls-1" points="15.43 73.81 18.89 70.98 21.25 73.18 17.95 76.33 15.43 73.81"></polygon><path class="cls-1" d="M143.13,79a55,55,0,0,0,6.93-2.52,4,4,0,0,0,1.65-1.57c.5-1.26,1.5-4.81-2.36-2.92-2.6,1.27-2.53-.68-4-.86-1-.13-3.38,2.28-5.15,3.64Z"></path><polygon class="cls-1" points="138.56 75.86 135.73 77.44 138.41 81.53 141.55 79.95 138.56 75.86"></polygon><path class="cls-1" d="M61.56,54.6a20.46,20.46,0,0,1,14-5.52,20.68,20.68,0,0,1,8.34,1.74c2-1.88,3.07-10.43,3.39-12s1.06-1.14.86-.12c-.15.63-.52,4.28-.63,5.39s1.26,3.11,5.52.28,9.44-11.58,11.33-16.93,2.36-14.88-2.36-21S88.65,3.27,85.81,5.48s-15.74,14.64-21.1,18.1-16.06,5-23.77,9.61S34.79,47.05,38.42,51.3,49.75,54.45,51,53.82c2.05-.63,5.75-1.22,2.84-5.2-.48-.63-.16-1,.47-.83a5.78,5.78,0,0,1,1.73,3.11,6.34,6.34,0,0,0,2.21,3.55C59.52,55.71,60.15,55.86,61.56,54.6Z"></path><path class="cls-1" d="M94.06,72.86c-4.49,4-13.52,3.71-14.78,3.47s-1.58.08-.71.71c4.41,2.13,11.67,1.15,14,.6a18.77,18.77,0,0,1-31.37,3.92c2.2-.4,5.29-1.72,6.16-3,.55-.47.32-1-.71-.32a14.87,14.87,0,0,1-7.06,1.09,18.62,18.62,0,0,1-2.4-6.2c1-1,2.6-1.55,3.24-2.09a9.77,9.77,0,0,1,3.09-1.23c.65-.21,1.26-.43,1.12-1.14s-2.45-.76-3.62-.35c-1.94.68-3.21.6-4.1-.24a18.77,18.77,0,1,1,37.19,4.8Z"></path><path fill="#41495a" d="M75,64c-1,.3-2,2.83,0,1.89a5.21,5.21,0,0,1,3.32,0c1.28.26,2-.78.8-1.4S76,63.52,75,64Z"></path><rect fill="#41495a" x="351.1" y="120.8" width="19.13" height="48.18"></rect><rect fill="#41495a" x="351.1" y="101.03" width="19.13" height="13.61"></rect><path fill="#41495a" d="M404.86,158.91c-5.61,0-8.37-6.2-8.37-13.46,0-5.71,1.2-13.15,8.37-13.15a6.44,6.44,0,0,1,5,1.93,7.76,7.76,0,0,1,2.65,5h19.4c-1.38-14.25-14.14-19.77-27-19.77-15.91,0-27.49,9.47-27.49,25.93,0,16.28,11.95,25,27.49,25,13.33,0,25.74-4,27.39-18.63H412.94C412.39,155.51,409.83,158.91,404.86,158.91Z"></path><path fill="#41495a" d="M649.05,149.22c1.79-18.5-10.49-29.8-28.33-29.8-15.44,0-27.31,10.12-27.31,25.93,0,16.19,13.22,26,28.67,26,11.21,0,22.61-3.11,25.72-14.33H629.5c-1.38,2.85-4.14,3.63-7.17,3.6-7.71-.1-9.79-5.66-9.79-11.36l8.54-.07v.07Zm-36.51-9.75c0-5.15,3.22-8.37,8.92-8.37a8.66,8.66,0,0,1,8.46,8.37l-8.84.07v-.07Z"></path><path fill="#41495a" d="M182.54,145.37s-14.8-44.72-14.8-44.41H142.23v68h19.53c-.48-11.5-.95-29,0-40.31L175,169H190.1l12.6-39.05c.47,11.81.63,25.82,0,39.05h19.52V101H197Z"></path><path fill="#41495a" d="M659,120.8h-6.44v11h6.34V169H678V131.84h8v-11h-8c-.46-7.72,1.75-7.72,8-7.72V101h-8.18C665.63,101,659,103.79,659,120.8Z"></path><path fill="#41495a" d="M325.85,120.8v5.4c-3.41-4.69-10.25-6.78-16-6.78-15.82,0-21.52,12.59-21.52,24.45h0c0,12.32,7.63,22.81,21,22.81,6.89,0,12.16-.7,15.21-3.51v2.22c0,6.9-.68,11-7.1,10.95-2.4,0-4.88-.77-5.71-1.51a3.11,3.11,0,0,1-1.19-2.11H291.25c.92,7.08,8.09,13.88,25.1,13.88,23.73,0,26.33-11.31,26.33-25.74V120.8Zm-10.42,34.38c-4.75-.09-7.54-4-7.95-9.65.38-4.91,2.71-12.49,7.95-12.41,6.07,0,9.14,5.95,9,10.39C324.31,150.4,321.32,155.45,315.43,155.18Z"></path><path fill="#41495a" d="M281.92,161.91V139.38c0-11.5-1.38-20-24.19-20-19,0-27.56,6-27.56,16.19h18.39c.46-4.14,5.31-4.69,8-4.69,2,0,6.25.46,6.25,4,0,9-35.56-.92-35.56,21,0,10,8.09,14.53,17.2,14.53,7.17,0,12.28-.6,17.17-4.8l3.12,3.42h18.83v-.92C282.22,166.62,281.92,164.66,281.92,161.91Zm-28.85-2.39c-3.76,0-6.06-1.68-6.07-4.06,0-6.24,9.54-4.77,15.79-7.81C263.25,154.27,259.78,159.52,253.07,159.52Z"></path><path fill="#41495a" d="M497.71,155.81c-11,0-14.95-10-14.95-19.28,0-12.79,6.49-19.31,14.12-19.31,6.81,0,12.07,3.48,12.72,10.37h20.6c-1.08-15-12-26.63-35.5-26.56-18.48.06-33,13.34-33,34.76s12.08,35.09,36.7,34.94c17.47-.1,29.86-8,33.6-25.82H511C510.21,151.25,504.7,155.81,497.71,155.81Z"></path><path fill="#41495a" d="M568.1,119.42a20,20,0,0,0-16,7.45V102.78h-19V169h19V144.43c0-6.16,3-9.93,8.87-9.93,5.42,0,6.71,4.23,6.71,9V169h19.12V140.11C586.76,126.87,580.79,119.42,568.1,119.42Z"></path><path fill="#41495a" d="M701.82,103.93a7.14,7.14,0,1,0,7.11,7.12A7.14,7.14,0,0,0,701.82,103.93Zm0,13.42a6.28,6.28,0,1,1,6.26-6.3A6.27,6.27,0,0,1,701.82,117.35Z"></path><path fill="#41495a" d="M705.48,109.18a2,2,0,0,0-.9-1.72,3.72,3.72,0,0,0-1.94-.39h-3.48v8h1v-3.68h1.8l2.28,3.68h1.16L703,111.37C704.38,111.33,705.48,110.75,705.48,109.18Zm-3.85,1.42h-1.5v-2.82h2.28c1,0,2.08.15,2.08,1.38C704.49,110.79,702.75,110.6,701.63,110.6Z"></path></g></g></svg> 