<?xml version="1.0" encoding="UTF-8"?> <svg xmlns="http://www.w3.org/2000/svg" viewBox="0 0 74 12" fill="#41495a"><path d="M68.4416 7.2272V6.35942H74V7.2272C73.6873 7.25311 73.4385 7.32434 73.275 7.43443C73.1115 7.54452 73.0262 7.73233 73.0262 7.99137V9.84997C73.0262 11.1646 73.1044 11.864 73.1044 11.864H72.0027C72.0027 11.864 71.5336 11.6503 71.2137 11.4107C70.8583 11.1452 70.6593 10.8602 70.6593 10.8602H70.5811C70.5811 10.8602 69.5291 12 67.6171 12C65.7904 12 64.6105 11.6892 63.5727 10.8861C61.7673 9.48732 61.6892 6.70912 61.6892 5.87372V5.86626C61.6891 5.1517 61.6891 2.85051 63.6865 1.30815C64.6745 0.543986 66.1458 0 68.3492 0C70.7446 0 71.8605 0.356186 72.5002 0.589313L72.6708 4.18997H71.6686C71.6686 4.18997 71.1355 3.05666 70.9081 2.6163C70.3821 1.59957 69.6358 1.2952 68.463 1.2952C67.8233 1.2952 66.9206 1.40529 66.3732 1.94279C65.4914 2.81271 65.5002 4.62375 65.5054 5.68315L65.5054 5.68508L65.5054 5.69667V5.69723C65.5058 5.76833 65.5061 5.83597 65.5061 5.89962C65.5061 9.59093 66.0889 10.1349 67.148 10.4911C67.8304 10.7242 69.3941 10.64 70.0907 10.0443C70.0907 10.0443 69.977 9.66865 69.977 9.29304V8.11441C69.977 7.6496 69.763 7.52596 69.5361 7.39485L69.5149 7.38263C69.2804 7.25311 68.6478 7.2272 68.4416 7.2272Z" fill="#41495a"></path><path fill-rule="evenodd" clip-rule="evenodd" d="M55.7104 10.9375C55.9663 10.9375 56.5847 10.9375 56.9046 10.7756C57.2557 10.5999 57.1333 10.2481 56.7183 9.05485L56.6771 8.93641L56.3004 7.86787H52.2844L51.8437 9.16307C51.4386 10.3482 51.794 10.6785 52.0925 10.795C52.3697 10.8986 53.0947 10.9504 53.3719 10.944V11.9218H48.9793V10.9116C49.1356 10.9116 49.6119 10.8209 49.9673 10.4194C50.2871 10.0568 50.5572 9.49335 50.806 8.81985C51.0477 8.14634 53.9761 0.11612 53.9761 0.11612H57.4448C57.5585 0.55001 57.7149 1.06809 57.921 1.7416C58.1271 2.40861 58.3688 3.16631 58.646 4.00818C58.9232 4.85007 59.2288 5.7567 59.5629 6.72163C59.897 7.68655 60.2524 8.68385 60.622 9.70706C60.7215 9.98552 60.9063 10.4647 61.2759 10.7367C61.556 10.9165 61.8646 10.9249 62.0281 10.9294L62.0304 10.9294C62.0485 10.9299 62.0648 10.9304 62.0791 10.931V11.9154H55.7104V10.9375ZM52.6671 6.98385L54.4512 2.03619H54.5294L55.9936 6.98385H52.6671Z" fill="#41495a"></path><path d="M51.0559 0.116578H36.9254V1.09445C37.3519 1.09445 37.7642 1.15273 37.8921 1.41178C38.0698 1.76147 37.8566 2.53212 37.3803 3.62009C36.6838 5.2067 36.1791 6.30762 36.1791 6.30762H36.0796C35.5567 5.27843 35.1194 4.40831 34.7653 3.70376L34.7519 3.67701L34.7517 3.67655C34.601 3.37682 34.4656 3.10742 34.3453 2.86887C33.9401 2.06585 33.734 1.5672 33.734 1.37939C33.734 1.22397 33.7624 1.08797 34.7504 1.08797V0.116578H28.5026V1.08151C28.9646 1.08151 29.3129 1.12683 29.519 1.2175C29.7251 1.30817 29.9028 1.48949 30.045 1.755C30.6136 2.8365 31.1609 3.89856 31.6869 4.94766C32.2129 5.99677 33.208 8.02375 33.208 8.02375V10.1349C33.208 10.3098 33.1725 10.4522 33.1014 10.5559C33.0303 10.6595 32.9095 10.7437 32.7531 10.802C32.5967 10.8602 32.3835 10.8991 32.1276 10.9185C31.8859 10.938 31.5945 10.9444 31.2533 10.9444V11.9223H38.3044V10.938C38.148 10.9315 38.0058 10.925 37.8708 10.9185C37.6007 10.8991 37.3874 10.8602 37.2169 10.7955C37.0534 10.7372 36.9254 10.653 36.8544 10.5429C36.7762 10.4393 36.7406 10.2968 36.7406 10.122V7.73881L39.2568 2.73935C39.4558 2.32489 39.7686 1.70966 40.0671 1.52186C40.3559 1.3402 40.7045 1.34032 41.2738 1.34053L41.3323 1.34054C42.2563 1.33406 42.434 1.45711 42.5833 1.63196C42.7112 1.79386 42.7468 2.15003 42.7397 2.6487V10.1479C42.7397 10.4263 42.5762 10.6271 42.2492 10.7501C41.9791 10.8538 41.5598 10.912 41.0054 10.9315V11.9223H48.0137V10.9315C47.4593 10.912 47.0399 10.8538 46.7698 10.7501C46.4429 10.6206 46.2794 10.4199 46.2794 10.1479V2.6487C46.2794 2.14357 46.3078 1.79386 46.4287 1.64491C46.5779 1.45711 46.7485 1.34054 47.6797 1.34054C48.426 1.34054 48.7245 1.35349 48.952 1.52186C49.305 1.78167 49.5737 2.34277 49.7706 2.75373L49.7978 2.81058L50.3451 3.89208H51.2478L51.0559 0.116578Z" fill="#41495a"></path><path fill-rule="evenodd" clip-rule="evenodd" d="M28.7301 9.7075C28.8296 9.98597 29.0144 10.4652 29.384 10.7372C29.6738 10.9337 30.0083 10.9322 30.1634 10.9315L30.1872 10.9315V11.9158H23.8185V10.9379C24.0744 10.9379 24.6928 10.9379 25.0127 10.776C25.3623 10.5977 25.2373 10.2438 24.7933 8.98701L24.771 8.9239L24.3942 7.85537H20.3783L19.9376 9.15056C19.5325 10.3357 19.8878 10.6659 20.1864 10.7825C20.4636 10.8861 21.1886 10.9379 21.4658 10.9315V11.9093H10.5907V10.9315C10.8395 10.9315 11.4437 10.9315 11.6854 10.8149C12.0123 10.6595 12.0479 10.368 12.0479 10.0637V2.26658H11.9128L8.68585 11.9158H6.90177L3.21988 2.26658H3.10616V9.84997C3.10616 10.245 3.23409 10.5299 3.48996 10.6918C3.75296 10.8537 4.18654 10.9379 4.81204 10.9379V11.9158H0V10.9379C0.611263 10.9379 1.07329 10.8537 1.37894 10.6983C1.68456 10.5364 1.84094 10.2644 1.84094 9.8694V1.8845C1.84094 1.29519 1.35049 1.08149 0.0426561 1.08149V0.116563H6.14833L8.85644 7.48623H8.97017L11.2802 0.116563H17.3859V1.08149C16.078 1.08149 15.5876 1.29519 15.5876 1.8845V10.0702C15.5876 10.8019 15.8861 10.9444 16.7462 10.9444C17.13 10.9444 17.6915 10.9056 18.0469 10.504C18.3739 10.1414 18.6582 9.49379 18.907 8.82029C19.1557 8.14678 22.0842 0.116563 22.0842 0.116563H25.5528C25.6666 0.550453 25.8229 1.06853 26.0291 1.74204C26.2352 2.40906 26.4769 3.16676 26.7541 4.00863C27.0313 4.85051 27.3369 5.75715 27.671 6.72207C28.0051 7.68699 28.3605 8.6843 28.7301 9.7075ZM22.5249 1.96872L20.7408 6.91637H24.0673L22.6031 1.96872H22.5249Z" fill="#41495a"></path></svg> 