<?xml version="1.0" encoding="UTF-8"?> <svg xmlns="http://www.w3.org/2000/svg" viewBox="0 0 7051.4 1080"><defs><style>.cls-1{fill:#41495a;}</style></defs><g id="Layer_2" data-name="Layer 2"><g id="svg2"><g id="g18"><path id="path20" class="cls-1" d="M6694.82,474.35v147h103.32V767.23c.32,13-.39,27.09-2.63,38.34-4.1,27.21-29.95,73.54-103.29,73.54-72.9,0-98.29-46.33-102.69-73.54-1.85-11.25-2.64-25.3-2.64-38.34V306.52c0-16.3,1.1-34.14,4.56-47.64,5-24.55,26.77-73,100.22-73,77.11,0,96.36,51,100.77,73,2.9,14.52,3.07,38.88,3.07,38.88v55.95h253.87V320.64s1.15-34.51-1.93-66.72C7028.37,64.82,6872.57,5,6693.91,5c-179,0-331.62,60.38-353.86,248.92-2,17.24-5.08,48.26-5.08,66.72V744.45c0,18.46.6,32.75,4,66.48C6355.55,994.83,6514.93,1060,6693.2,1060c179.37,0,337.65-65.18,354.5-249.08,3-33.73,3.3-48,3.7-66.48V474.35ZM4944.33,32.11H4689.38V777.86c.4,13,0,27.6-2.24,38.3-5.32,25-26.53,73.21-96.87,73.21-69.43,0-91.2-48.17-96.12-73.21-2.55-10.7-2.88-25.3-2.55-38.3V32.11H4236.73V754.72c-.32,18.62,1.14,56.68,2.24,66.64,17.59,188.3,166,249.44,351.3,249.44,185.67,0,334-61.14,351.9-249.44,1.41-10,3.26-48,2.16-66.64Zm-2342.49,0-127.17,788-127.1-788H1936.33l-21.82,1008.06h252L2173.28,107l173.35,933.19h255.61L2775.75,107l6.84,933.19h252.58L3012.62,32.11Zm-1522.62,0L892.49,1040.17H1164.8L1305.51,107l137.34,933.19h270.41l-186-1008.06Zm4756.1,811.61L5597.93,32.11H5223.84v997.55h247.47l-14.37-837.57,255,837.57h358.77V32.11H5821.57Zm-2289-549.26c-4.48-19.9-3.18-41-.87-52.11,7.21-32.27,28.89-67.46,91.36-67.46,58.22,0,92.36,36.29,92.36,90.76v61.64h248.52V257C3977.69,39.83,3783,5.71,3642,5.71c-177.57,0-322.58,58.53-349.07,222-7,44.48-8.73,84,2.41,134.34,43.18,203.77,397.94,262.89,449.43,391.76,9.09,24.41,6.49,55.54,1.85,73.89-7.71,33.53-30.27,67.27-97.15,67.27-62.73,0-100.49-36.07-100.49-90.42l-.08-96.74h-267.5v76.9c0,222.83,174.54,290.06,362.53,290.06,180,0,328.74-61.52,352.59-228.29,11.38-86.17,2.8-142.3-1.77-163.43-41.68-209-419.79-271.88-448.41-388.55M267.94,292c-4.88-20.32-3.74-41.77-1-53,6.88-32.12,28.7-67.93,92.26-67.93,59,0,93.68,36.64,93.68,91.55v62.39H704.3V254.23C704.3,35,506.59,0,364.06,0,185,0,38.7,59.44,11.93,224.05c-7.32,45.19-8.58,84.94,2,135.87C57.59,566,415.85,625.61,468,756c9.76,24.25,6.81,55.38,2,74.43-8.27,33.89-31,68.1-98.46,68.1-63,0-100.64-36.68-100.64-91.79l-.35-97H0v77.08C0,1012.22,177,1080,366.46,1080c182.14,0,331.7-62.07,356.1-230.77,12.13-87,3-143.55-1.06-165C679,472.65,296.64,410,267.94,292"></path></g></g></g></svg> 