<?xml version="1.0" encoding="UTF-8"?> <svg xmlns="http://www.w3.org/2000/svg" viewBox="0 0 192.73 41.03"><defs><style>.cls-1{fill:#41495a;}.cls-2{fill:#41495a;}.cls-3{fill:#41495a;}</style></defs><g id="Layer_2" data-name="Layer 2"><g id="Layer_1-2" data-name="Layer 1"><path class="cls-1" d="M0,0C23.62,3.19,66.27,3.56,94,3.56S164.35,3.19,188,0a47.18,47.18,0,0,0-4.55,20.51A47.19,47.19,0,0,0,188,41c-23.63-3.2-66.28-3.56-94-3.56S23.62,37.83,0,41A47.33,47.33,0,0,0,4.54,20.51,47.32,47.32,0,0,0,0,0M182,20.51a49.88,49.88,0,0,1,3.64-18.8C167.56,3.9,137.51,5,94,5S20.41,3.9,2.31,1.71A49.88,49.88,0,0,1,6,20.51,49.9,49.9,0,0,1,2.31,39.32C20.42,37.13,50.47,36.06,94,36.06s73.57,1.07,91.68,3.26A49.9,49.9,0,0,1,182,20.51"></path><path class="cls-2" d="M90.65,19.93H87.94l1.6-2.78H86.33l1.36-2.35-1.07-.62-1.36,2.36-1.6-2.79-1.61,2.79-1.36-2.36-1.06.62L81,17.15H77.77l1.61,2.78H76.67v1.23h2.71l-1.61,2.78H81L79.63,26.3l1.06.61,1.36-2.35,1.61,2.78,1.6-2.78,1.36,2.35,1.07-.61-1.36-2.36h3.21l-1.6-2.78h2.71Zm-9,2.78H79.92l.89-1.55h1.78Zm-.89-2.78-.89-1.54H81.7l.89,1.54Zm2.85,4.93-.89-1.54.89-1.54.89,1.54Zm0-5.54-.89-1.55.89-1.54.89,1.54Zm2,3.39-.88-1.55h1.78l.89,1.55Zm.9-2.78H84.73l.88-1.54H87.4Z"></path><path class="cls-1" d="M27.44,18.7H19.19a1.48,1.48,0,0,1-1.46-1.47v-.49a1.47,1.47,0,0,1,1.46-1.47H31.35V11.48H19.19a5.26,5.26,0,0,0-5.25,5.26v.49a5.26,5.26,0,0,0,5.25,5.25h8.25A1.47,1.47,0,0,1,28.91,24v.49a1.47,1.47,0,0,1-1.47,1.47H14.78v3.78H27.44a5.22,5.22,0,0,0,5.25-5.25V24a5.22,5.22,0,0,0-5.25-5.25"></path><path class="cls-1" d="M49.6,24.44a1.48,1.48,0,0,1-1.49,1.47H40.52a1.47,1.47,0,0,1-1.47-1.47v-13H35.26v13a5.26,5.26,0,0,0,5.26,5.25h7.59a5.28,5.28,0,0,0,3.74-1.53,5.23,5.23,0,0,0,1.54-3.72v-13H49.6Z"></path><path class="cls-1" d="M69.71,11.48H56.87V29.69H69.71A5.26,5.26,0,0,0,75,24.44v-.73a5.2,5.2,0,0,0-1.21-3.36A5.32,5.32,0,0,0,75,17v-.23A5.19,5.19,0,0,0,73.44,13a5.25,5.25,0,0,0-3.73-1.54M60.65,22.25h9.06a1.48,1.48,0,0,1,1.49,1.46v.73a1.48,1.48,0,0,1-1.49,1.47H60.65Zm9.06-3.82H60.65V15.27h9.06a1.48,1.48,0,0,1,1.49,1.47V17a1.46,1.46,0,0,1-1.49,1.46"></path><path class="cls-1" d="M113,13a5.23,5.23,0,0,0-1.54,3.72v7.7a5.26,5.26,0,0,0,5.25,5.25h12.88V25.91H116.67a1.47,1.47,0,0,1-1.47-1.47v-2h12.17V18.69H115.2v-2a1.47,1.47,0,0,1,1.46-1.47h12.88V11.48H116.66A5.22,5.22,0,0,0,113,13"></path><path class="cls-1" d="M151.64,19.13v-2.4A5.22,5.22,0,0,0,150.1,13a5.29,5.29,0,0,0-3.74-1.54H133.51V29.69h3.79V24.41h4.89l5.29,5.28h5.43l-5.42-5.4a5.27,5.27,0,0,0,4.15-5.16M137.3,15.27h9.06a1.46,1.46,0,0,1,1.49,1.46v2.4a1.48,1.48,0,0,1-1.49,1.46H137.3Z"></path><path class="cls-1" d="M172.06,13a5.26,5.26,0,0,0-3.74-1.54h-7.59a5.26,5.26,0,0,0-5.25,5.26v7.7a5.26,5.26,0,0,0,5.25,5.25h7.59a5.25,5.25,0,0,0,3.74-1.53,5.19,5.19,0,0,0,1.54-3.72v-7.7A5.19,5.19,0,0,0,172.06,13m-12.79,3.72a1.47,1.47,0,0,1,1.46-1.47h7.59a1.49,1.49,0,0,1,1.5,1.47v7.7a1.49,1.49,0,0,1-1.5,1.47h-7.59a1.47,1.47,0,0,1-1.46-1.47Z"></path><path class="cls-1" d="M96.17,25.91a.35.35,0,0,1-.35-.36.36.36,0,0,1,.15-.29l10.78-6.69a4.18,4.18,0,0,0,2-3.45,3.49,3.49,0,0,0-1.11-2.55,4.26,4.26,0,0,0-3-1.09H91.05v3.79h12.52a.35.35,0,0,1,.2.65L92.64,22.83A3.75,3.75,0,0,0,90.78,26a3.55,3.55,0,0,0,1.15,2.57A4.59,4.59,0,0,0,95,29.69h13.42V25.91Z"></path><path class="cls-3" d="M189.33,1.81A1.71,1.71,0,0,1,191,.11a1.69,1.69,0,0,1,1.69,1.7,1.7,1.7,0,1,1-3.4,0m3.13,0A1.41,1.41,0,0,0,191,.33a1.43,1.43,0,0,0-1.44,1.48A1.43,1.43,0,0,0,191,3.3a1.42,1.42,0,0,0,1.42-1.49m-.57.95h-.28l-.54-.87h-.43v.87h-.23V.86h.83c.5,0,.67.19.67.5s-.26.52-.59.53ZM191,1.7c.27,0,.66.05.66-.34s-.24-.33-.47-.33h-.55V1.7Z"></path></g></g></svg> 